<svg xmlns="http://www.w3.org/2000/svg" xml:space="preserve" fill-rule="evenodd" stroke-linejoin="round"
     stroke-miterlimit="2" clip-rule="evenodd" viewBox="0 0 512 512">
  <path fill="none" d="M0 0h512v512H0z"/>
  <clipPath id="a">
    <path d="M0 0h512v512H0z"/>
  </clipPath>
  <g clip-path="url(#a)">
    <path fill="url(#b)" d="M0 0h512v512H0z"/>
    <path fill="#22cc4a"
          d="M279 407.875v-112.5c0-62.366-50.634-113-113-113s-113 50.634-113 113 50.634 113 113 113c25.071 0 48.247-8.183 67-22.022v21.522c0 12.694 10.306 23 23 23s23-10.306 23-23Zm-46-112.5c0-36.978-30.022-67-67-67s-67 30.022-67 67 30.022 67 67 67 67-30.022 67-67ZM143.819 138.273a55.456 55.456 0 0 1 33.431-11.148c30.769 0 55.75 24.981 55.75 55.75 0 12.694 10.306 23 23 23s23-10.306 23-23c0-56.157-45.593-101.75-101.75-101.75-22.906 0-44.053 7.587-61.069 20.377-10.147 7.627-12.194 22.057-4.567 32.204 7.627 10.148 22.058 12.194 32.205 4.567Z"/>
    <path fill="#0a7ad1"
          d="M233 182.875v112.5c0 62.366 50.634 113 113 113s113-50.634 113-113-50.634-113-113-113c-25.071 0-48.247 8.183-67 22.022v-21.522c0-30.769 24.981-55.75 55.75-55.75a55.456 55.456 0 0 1 33.431 11.148c10.147 7.627 24.578 5.581 32.205-4.567 7.627-10.147 5.58-24.577-4.567-32.204-17.016-12.79-38.163-20.377-61.069-20.377-56.157 0-101.75 45.593-101.75 101.75Zm46 112.5c0 36.978 30.022 67 67 67s67-30.022 67-67-30.022-67-67-67-67 30.022-67 67Z"/>
  </g>
  <defs>
    <radialGradient id="b" cx="0" cy="0" r="1" gradientTransform="matrix(256 0 0 256 256 256)"
                    gradientUnits="userSpaceOnUse">
      <stop offset="0" stop-color="#fafdff"/>
      <stop offset="1" stop-color="#cae7fc"/>
    </radialGradient>
  </defs>
</svg>