<svg xmlns="http://www.w3.org/2000/svg" xml:space="preserve" fill-rule="evenodd" stroke-linecap="round"
     stroke-linejoin="round" stroke-miterlimit="1.5" clip-rule="evenodd" viewBox="0 0 200 50">
  <path fill="none" d="M0 0h200v50H0z"/>
  <clipPath id="a">
    <path d="M0 0h200v50H0z"/>
  </clipPath>
  <g clip-path="url(#a)">
    <g fill="none" stroke-width="7">
      <path stroke="#22cc4a"
            d="M29 30.578v15.938M29 30.578c0 7.037-5.713 12.75-12.75 12.75S3.5 37.615 3.5 30.578s5.713-12.75 12.75-12.75S29 23.541 29 30.578M11.15 5.717a11.102 11.102 0 0 1 6.694-2.233C24.001 3.484 29 8.483 29 14.641"/>
      <path stroke="#0a7ad1"
            d="M29 14.641v15.937M29 30.578c0 7.037 5.713 12.75 12.75 12.75s12.75-5.713 12.75-12.75-5.713-12.75-12.75-12.75S29 23.541 29 30.578M46.85 5.717a11.102 11.102 0 0 0-6.694-2.233C33.999 3.484 29 8.483 29 14.641"/>
    </g>
    <g fill="#0a7ad1" fill-rule="nonzero">
      <path
          d="M67.536 15.1h4.272l4.536 17.136h-3.6l-.792-3.624h-4.56l-.792 3.624H63L67.536 15.1Zm3.816 10.68-1.656-7.704h-.048l-1.656 7.704h3.36ZM77.448 19.324h3.312v5.328l3.408-5.328h3.6l-3.696 5.352 4.224 7.56h-3.672l-2.592-4.992-1.272 1.776v3.216h-3.312V19.324ZM91.776 32.5c-.576 0-1.064-.104-1.464-.312a2.62 2.62 0 0 1-.96-.828 3.589 3.589 0 0 1-.528-1.164 5.239 5.239 0 0 1-.168-1.32c0-.608.064-1.132.192-1.572.128-.44.324-.816.588-1.128.264-.312.6-.572 1.008-.78.408-.208.9-.392 1.476-.552l1.872-.504c.496-.128.84-.304 1.032-.528.192-.224.288-.552.288-.984 0-.496-.116-.884-.348-1.164-.232-.28-.628-.42-1.188-.42-.512 0-.896.152-1.152.456-.256.304-.384.712-.384 1.224v.36h-2.976v-.312c0-.736.12-1.36.36-1.872a3.27 3.27 0 0 1 .972-1.236 3.858 3.858 0 0 1 1.44-.672 7.354 7.354 0 0 1 1.764-.204c.976 0 1.772.096 2.388.288.616.192 1.092.464 1.428.816.336.352.564.772.684 1.26.12.488.18 1.02.18 1.596v6.792c0 .608.028 1.08.084 1.416.056.336.164.696.324 1.08H95.52a2.744 2.744 0 0 1-.252-.66c-.056-.232-.108-.46-.156-.684h-.048c-.384.672-.828 1.108-1.332 1.308-.504.2-1.156.3-1.956.3Zm1.296-2.184c.224 0 .456-.036.696-.108.24-.072.46-.188.66-.348.2-.16.364-.364.492-.612s.192-.556.192-.924V25.78a2.972 2.972 0 0 1-.72.42 4.66 4.66 0 0 1-.696.228c-.672.144-1.152.384-1.44.72-.288.336-.432.792-.432 1.368 0 .496.096.92.288 1.272.192.352.512.528.96.528ZM99.528 29.74h1.08c.4-.864.708-1.892.924-3.084.216-1.192.324-2.668.324-4.428v-2.904h8.712V29.74h1.488v5.496h-3v-3h-6.528v3h-3V29.74Zm7.824 0v-7.92h-2.4v1.152a23.6 23.6 0 0 1-.636 5.268 10.44 10.44 0 0 1-.468 1.5h3.504ZM117.84 32.5c-1.2 0-2.136-.204-2.808-.612-.672-.408-1.168-.936-1.488-1.584-.32-.648-.516-1.38-.588-2.196a27.839 27.839 0 0 1-.108-2.448c0-.864.06-1.696.18-2.496s.36-1.512.72-2.136c.36-.624.876-1.12 1.548-1.488.672-.368 1.568-.552 2.688-.552.96 0 1.748.156 2.364.468.616.312 1.1.752 1.452 1.32.352.568.592 1.256.72 2.064s.192 1.708.192 2.7v.744h-6.552v1.032c0 .384.028.756.084 1.116.056.36.148.68.276.96.128.28.296.504.504.672.208.168.464.252.768.252.56 0 .968-.2 1.224-.6.256-.4.432-1.008.528-1.824h2.976c-.064 1.504-.46 2.648-1.188 3.432-.728.784-1.892 1.176-3.492 1.176Zm1.704-8.184a14.032 14.032 0 0 0-.096-1.308 3.351 3.351 0 0 0-.252-.96 1.341 1.341 0 0 0-.504-.6c-.216-.136-.492-.204-.828-.204-.336 0-.612.076-.828.228a1.638 1.638 0 0 0-.516.6c-.128.248-.22.524-.276.828a5.024 5.024 0 0 0-.084.912v.504h3.384ZM124.44 19.324h4.728l2.016 8.64 2.016-8.64h4.728v12.912h-3.096v-9.168l-2.28 9.168h-2.736l-2.28-9.168v9.168h-3.096V19.324ZM140.136 19.324h3.12v8.136l3.504-8.136h3.504v12.912h-3.144v-8.088l-3.504 8.088h-3.48V19.324ZM154.416 27.124c-.752-.272-1.34-.712-1.764-1.32-.424-.608-.636-1.4-.636-2.376 0-1.424.396-2.464 1.188-3.12.792-.656 1.836-.984 3.132-.984h5.448v12.912h-3.288V27.46h-.912l-2.352 4.776h-3.792l2.976-5.112Zm4.104-2.016V21.7h-1.344c-.656 0-1.144.136-1.464.408-.32.272-.48.712-.48 1.32 0 .608.144 1.04.432 1.296.288.256.736.384 1.344.384h1.512ZM169.848 15.1h10.008v2.832h-6.552V21.7h2.112c.864 0 1.636.088 2.316.264.68.176 1.252.464 1.716.864.464.4.82.932 1.068 1.596.248.664.372 1.476.372 2.436 0 .976-.128 1.804-.384 2.484-.256.68-.632 1.236-1.128 1.668-.496.432-1.096.744-1.8.936-.704.192-1.512.288-2.424.288h-5.304V15.1Zm4.68 14.496c.496 0 .92-.04 1.272-.12.352-.08.644-.224.876-.432.232-.208.404-.488.516-.84.112-.352.168-.808.168-1.368 0-.976-.228-1.636-.684-1.98-.456-.344-1.14-.516-2.052-.516h-1.32v5.256h1.224ZM189.312 30.244c-2.144 0-3.804-.588-4.98-1.764-1.176-1.176-1.764-2.82-1.764-4.932 0-1.008.152-1.916.456-2.724.304-.808.744-1.5 1.32-2.076.576-.576 1.284-1.02 2.124-1.332.84-.312 1.788-.468 2.844-.468v-2.184h3.456v2.184c1.056 0 2.004.156 2.844.468.84.312 1.548.752 2.124 1.32a5.63 5.63 0 0 1 1.32 2.076c.304.816.456 1.728.456 2.736 0 2.112-.588 3.756-1.764 4.932-1.176 1.176-2.836 1.764-4.98 1.764V32.5h-3.456v-2.256Zm.12-10.632c-.576 0-1.072.096-1.488.288-.416.192-.76.46-1.032.804a3.362 3.362 0 0 0-.6 1.236 6.241 6.241 0 0 0-.192 1.608c0 1.2.264 2.172.792 2.916.528.744 1.368 1.116 2.52 1.116v-7.968Zm3.216 7.968c1.152 0 1.992-.372 2.52-1.116.528-.744.792-1.716.792-2.916 0-.592-.064-1.128-.192-1.608a3.362 3.362 0 0 0-.6-1.236 2.776 2.776 0 0 0-1.032-.804c-.416-.192-.912-.288-1.488-.288v7.968Z"/>
    </g>
  </g>
</svg>