<svg xmlns="http://www.w3.org/2000/svg" xml:space="preserve" fill-rule="evenodd" stroke-linejoin="round"
     stroke-miterlimit="2" clip-rule="evenodd" viewBox="0 0 513 513">
  <path fill="none" d="M.273.027h512v512h-512z"/>
  <clipPath id="a">
    <path d="M.273.027h512v512h-512z"/>
  </clipPath>
  <g clip-path="url(#a)">
    <path fill="#22cc4a"
          d="M285.278 447.554V305.683c0-78.65-63.853-142.503-142.502-142.503S.273 227.033.273 305.683c0 78.649 63.854 142.502 142.503 142.502 31.617 0 60.843-10.319 84.493-27.771v27.14c0 16.009 12.996 29.005 29.004 29.005 16.009 0 29.005-12.996 29.005-29.005Zm-58.009-141.871c0-46.633-37.86-84.493-84.493-84.493-46.633 0-84.493 37.86-84.493 84.493 0 46.632 37.86 84.492 84.493 84.492 46.633 0 84.493-37.86 84.493-84.492ZM114.804 107.563c11.746-8.829 26.347-14.058 42.159-14.058 38.803 0 70.306 31.503 70.306 70.306 0 16.008 12.996 29.005 29.004 29.005 16.009 0 29.005-12.997 29.005-29.005 0-70.82-57.496-128.316-128.315-128.316-28.886 0-55.554 9.568-77.013 25.697-12.797 9.618-15.377 27.816-5.759 40.613 9.618 12.796 27.817 15.377 40.613 5.758Z"/>
    <path fill="#0a7ad1"
          d="M227.269 163.811v141.872c0 78.649 63.853 142.502 142.502 142.502s142.502-63.853 142.502-142.502c0-78.65-63.853-142.503-142.502-142.503-31.617 0-60.843 10.319-84.493 27.771v-27.14c0-38.803 31.503-70.306 70.306-70.306 15.812 0 30.412 5.229 42.159 14.058 12.796 9.619 30.994 7.038 40.613-5.758 9.618-12.797 7.038-30.995-5.759-40.613-21.459-16.129-48.127-25.697-77.013-25.697-70.819 0-128.315 57.496-128.315 128.316Zm58.009 141.872c0 46.632 37.86 84.492 84.493 84.492 46.633 0 84.493-37.86 84.493-84.492 0-46.633-37.86-84.493-84.493-84.493-46.633 0-84.493 37.86-84.493 84.493Z"/>
  </g>
</svg>